<svg xmlns="http://www.w3.org/2000/svg" width="64" height="64" viewBox="0 0 64 64">
  <!-- Black circular background -->
  <circle cx="32" cy="32" r="32" fill="#000000"/>
  
  <!-- White maple leaf -->
  <path d="M32 8L35 18L42 15L40 22L48 20L45 28L52 28L48 34L54 38L46 40L48 46L40 44L42 50L35 47L32 56L29 47L22 50L24 44L16 46L18 40L10 38L16 34L12 28L19 28L16 20L24 22L26 15L29 18L32 8Z" fill="#ffffff"/>
  
  <!-- Maple leaf stem -->
  <rect x="30.5" y="48" width="3" height="12" fill="#ffffff"/>
</svg>